<svg width="80" height="96" viewBox="0 0 80 96" fill="none" xmlns="http://www.w3.org/2000/svg">
<path d="M40 81.334C35.9444 80.834 31.9167 79.7368 27.9167 78.0423C23.9167 76.3479 20.3472 73.9173 17.2083 70.7506C14.0694 67.584 11.5278 63.584 9.58332 58.7506C7.63888 53.9173 6.66666 48.1118 6.66666 41.334V38.0006H9.99999C12.8333 38.0006 15.75 38.3618 18.75 39.084C21.75 39.8062 24.5555 40.8895 27.1667 42.334C27.8333 37.5562 29.3472 32.6534 31.7083 27.6256C34.0694 22.5979 36.8333 18.2784 40 14.6673C43.1667 18.2784 45.9305 22.5979 48.2917 27.6256C50.6528 32.6534 52.1667 37.5562 52.8333 42.334C55.4444 40.8895 58.25 39.8062 61.25 39.084C64.25 38.3618 67.1667 38.0006 70 38.0006H73.3333V41.334C73.3333 48.1118 72.3611 53.9173 70.4167 58.7506C68.4722 63.584 65.9306 67.584 62.7917 70.7506C59.6528 73.9173 56.0972 76.3479 52.125 78.0423C48.1528 79.7368 44.1111 80.834 40 81.334ZM39.8333 74.5007C39.2222 65.2784 36.4861 58.3062 31.625 53.584C26.7639 48.8618 20.7222 45.9451 13.5 44.834C14.1111 54.334 16.9305 61.4173 21.9583 66.084C26.9861 70.7506 32.9444 73.5562 39.8333 74.5007ZM40 53.334C40.8333 52.1118 41.8472 50.8479 43.0417 49.5423C44.2361 48.2368 45.3889 47.1118 46.5 46.1673C46.3889 43.0006 45.7639 39.6951 44.625 36.2506C43.4861 32.8062 41.9444 29.4451 40 26.1673C38.0555 29.4451 36.5139 32.8062 35.375 36.2506C34.2361 39.6951 33.6111 43.0006 33.5 46.1673C34.6111 47.1118 35.7778 48.2368 37 49.5423C38.2222 50.8479 39.2222 52.1118 40 53.334ZM46.5 73.0007C48.5555 72.334 50.6944 71.3618 52.9167 70.084C55.1389 68.8062 57.2083 67.0701 59.125 64.8756C61.0417 62.6812 62.6806 59.9451 64.0417 56.6673C65.4028 53.3895 66.2222 49.4451 66.5 44.834C61.2778 45.6118 56.6944 47.3479 52.75 50.0423C48.8055 52.7368 45.7778 56.1673 43.6667 60.334C44.3333 62.1118 44.9028 64.0562 45.375 66.1673C45.8472 68.2784 46.2222 70.5562 46.5 73.0007Z" fill="#A3B18A"/>
</svg>
